<svg xmlns="http://www.w3.org/2000/svg" xmlns:xlink="http://www.w3.org/1999/xlink" width="65.96" height="26.434" viewBox="0 0 65.96 26.434">
  <defs>
    <clipPath id="clip-path">
      <path id="Path_604" data-name="Path 604" d="M48.938,70.289H114.9v1.86H48.938Zm0,0" transform="translate(-48.938 -70.289)"/>
    </clipPath>
    <linearGradient id="linear-gradient" x1="-0.317" y1="-16.124" x2="-0.31" y2="-16.124" gradientUnits="objectBoundingBox">
      <stop offset="0" stop-color="#323894"/>
      <stop offset="0.25" stop-color="#313894"/>
      <stop offset="0.254" stop-color="#313a94"/>
      <stop offset="0.258" stop-color="#303b94"/>
      <stop offset="0.262" stop-color="#303d94"/>
      <stop offset="0.266" stop-color="#2f3e94"/>
      <stop offset="0.27" stop-color="#2f3f94"/>
      <stop offset="0.273" stop-color="#2e4094"/>
      <stop offset="0.277" stop-color="#2e4194"/>
      <stop offset="0.281" stop-color="#2d4294"/>
      <stop offset="0.285" stop-color="#2c4394"/>
      <stop offset="0.289" stop-color="#2c4394"/>
      <stop offset="0.293" stop-color="#2b4494"/>
      <stop offset="0.297" stop-color="#2a4594"/>
      <stop offset="0.301" stop-color="#294694"/>
      <stop offset="0.305" stop-color="#284794"/>
      <stop offset="0.309" stop-color="#274895"/>
      <stop offset="0.313" stop-color="#264995"/>
      <stop offset="0.316" stop-color="#264995"/>
      <stop offset="0.32" stop-color="#254a95"/>
      <stop offset="0.324" stop-color="#254b95"/>
      <stop offset="0.328" stop-color="#244c95"/>
      <stop offset="0.332" stop-color="#234d95"/>
      <stop offset="0.336" stop-color="#224e95"/>
      <stop offset="0.34" stop-color="#214f96"/>
      <stop offset="0.344" stop-color="#205096"/>
      <stop offset="0.348" stop-color="#205096"/>
      <stop offset="0.352" stop-color="#1f5196"/>
      <stop offset="0.355" stop-color="#1e5296"/>
      <stop offset="0.359" stop-color="#1d5396"/>
      <stop offset="0.363" stop-color="#1c5396"/>
      <stop offset="0.367" stop-color="#1b5496"/>
      <stop offset="0.371" stop-color="#195596"/>
      <stop offset="0.375" stop-color="#185696"/>
      <stop offset="0.379" stop-color="#165696"/>
      <stop offset="0.383" stop-color="#155796"/>
      <stop offset="0.387" stop-color="#135897"/>
      <stop offset="0.391" stop-color="#115997"/>
      <stop offset="0.395" stop-color="#105a97"/>
      <stop offset="0.398" stop-color="#0e5b97"/>
      <stop offset="0.402" stop-color="#0d5b97"/>
      <stop offset="0.406" stop-color="#0c5c97"/>
      <stop offset="0.41" stop-color="#0a5c97"/>
      <stop offset="0.414" stop-color="#085d97"/>
      <stop offset="0.418" stop-color="#055e97"/>
      <stop offset="0.422" stop-color="#025f97"/>
      <stop offset="0.426" stop-color="#016097"/>
      <stop offset="0.43" stop-color="#006197"/>
      <stop offset="0.434" stop-color="#006298"/>
      <stop offset="0.438" stop-color="#006298"/>
      <stop offset="0.441" stop-color="#006398"/>
      <stop offset="0.445" stop-color="#006498"/>
      <stop offset="0.453" stop-color="#006497"/>
      <stop offset="0.457" stop-color="#006597"/>
      <stop offset="0.461" stop-color="#006697"/>
      <stop offset="0.465" stop-color="#006797"/>
      <stop offset="0.469" stop-color="#006797"/>
      <stop offset="0.473" stop-color="#006897"/>
      <stop offset="0.477" stop-color="#006997"/>
      <stop offset="0.48" stop-color="#006997"/>
      <stop offset="0.484" stop-color="#006a98"/>
      <stop offset="0.488" stop-color="#006b98"/>
      <stop offset="0.492" stop-color="#006c98"/>
      <stop offset="0.496" stop-color="#006d98"/>
      <stop offset="0.5" stop-color="#006e98"/>
      <stop offset="0.504" stop-color="#006f98"/>
      <stop offset="0.508" stop-color="#007098"/>
      <stop offset="0.512" stop-color="#007098"/>
      <stop offset="0.516" stop-color="#007198"/>
      <stop offset="0.52" stop-color="#007298"/>
      <stop offset="0.523" stop-color="#007398"/>
      <stop offset="0.527" stop-color="#007398"/>
      <stop offset="0.531" stop-color="#007498"/>
      <stop offset="0.535" stop-color="#007598"/>
      <stop offset="0.539" stop-color="#007598"/>
      <stop offset="0.547" stop-color="#007698"/>
      <stop offset="0.551" stop-color="#007797"/>
      <stop offset="0.555" stop-color="#007797"/>
      <stop offset="0.559" stop-color="#007897"/>
      <stop offset="0.563" stop-color="#007998"/>
      <stop offset="0.566" stop-color="#007a98"/>
      <stop offset="0.57" stop-color="#007a98"/>
      <stop offset="0.574" stop-color="#007b98"/>
      <stop offset="0.578" stop-color="#007c98"/>
      <stop offset="0.582" stop-color="#007d98"/>
      <stop offset="0.586" stop-color="#007d98"/>
      <stop offset="0.59" stop-color="#007e98"/>
      <stop offset="0.594" stop-color="#007f98"/>
      <stop offset="0.598" stop-color="#008098"/>
      <stop offset="0.602" stop-color="#008098"/>
      <stop offset="0.605" stop-color="#008198"/>
      <stop offset="0.609" stop-color="#008297"/>
      <stop offset="0.613" stop-color="#008397"/>
      <stop offset="0.617" stop-color="#008397"/>
      <stop offset="0.621" stop-color="#008497"/>
      <stop offset="0.625" stop-color="#008597"/>
      <stop offset="0.629" stop-color="#008697"/>
      <stop offset="0.633" stop-color="#008697"/>
      <stop offset="0.637" stop-color="#008797"/>
      <stop offset="0.641" stop-color="#008897"/>
      <stop offset="0.645" stop-color="#008897"/>
      <stop offset="0.648" stop-color="#008997"/>
      <stop offset="0.652" stop-color="#008a97"/>
      <stop offset="0.656" stop-color="#008b96"/>
      <stop offset="0.66" stop-color="#008b96"/>
      <stop offset="0.664" stop-color="#008c96"/>
      <stop offset="0.668" stop-color="#008d96"/>
      <stop offset="0.672" stop-color="#008e96"/>
      <stop offset="0.676" stop-color="#008e96"/>
      <stop offset="0.68" stop-color="#008f96"/>
      <stop offset="0.684" stop-color="#009096"/>
      <stop offset="0.688" stop-color="#009196"/>
      <stop offset="0.691" stop-color="#009196"/>
      <stop offset="0.695" stop-color="#009296"/>
      <stop offset="0.703" stop-color="#009396"/>
      <stop offset="0.707" stop-color="#009495"/>
      <stop offset="0.711" stop-color="#009495"/>
      <stop offset="0.715" stop-color="#009595"/>
      <stop offset="0.719" stop-color="#009694"/>
      <stop offset="0.723" stop-color="#009694"/>
      <stop offset="0.727" stop-color="#009794"/>
      <stop offset="0.73" stop-color="#009894"/>
      <stop offset="0.734" stop-color="#009894"/>
      <stop offset="0.738" stop-color="#009994"/>
      <stop offset="0.742" stop-color="#009a94"/>
      <stop offset="0.75" stop-color="#009a94"/>
      <stop offset="1" stop-color="#009b94"/>
    </linearGradient>
  </defs>
  <g id="surface1" transform="translate(0)">
    <path id="Path_602" data-name="Path 602" d="M114.9,37.562H48.941V12.7l65.955.015V37.562" transform="translate(-48.94 -12.695)" fill="#d1d2d4"/>
    <g id="Group_431" data-name="Group 431" transform="translate(0 24.574)" clip-path="url(#clip-path)">
      <path id="Path_603" data-name="Path 603" d="M48.938,70.289v1.86H114.9v-1.86Zm0,0" transform="translate(-48.938 -70.289)" fill="url(#linear-gradient)"/>
    </g>
    <path id="Path_605" data-name="Path 605" d="M65.032,45.82a4.851,4.851,0,0,0-.847.06,1.816,1.816,0,0,0-1.552,1.282,2.646,2.646,0,0,0-.075.693v2.26l.248,0a1.257,1.257,0,0,0,1.067-.488,1.17,1.17,0,0,0,.16-.633V47.919a.964.964,0,0,1,.142-.633.844.844,0,0,1,.712-.253h2.367V45.82H65.032" transform="translate(-56.747 -31.687)" fill="#009b94"/>
    <path id="Path_606" data-name="Path 606" d="M167.907,47.029a1.818,1.818,0,0,0-1.553-1.282,4.829,4.829,0,0,0-.847-.06h-.895a4.876,4.876,0,0,0-.849.06,1.811,1.811,0,0,0-1.551,1.282,2.651,2.651,0,0,0-.075.693v2.317l.247,0a1.254,1.254,0,0,0,1.068-.488,1.17,1.17,0,0,0,.158-.633V47.788a.964.964,0,0,1,.145-.637.843.843,0,0,1,.71-.253h1.187a.855.855,0,0,1,.713.253.986.986,0,0,1,.142.637v1.128a1.156,1.156,0,0,0,.16.633,1.253,1.253,0,0,0,1.068.488l.247,0V47.723a2.722,2.722,0,0,0-.075-.693" transform="translate(-113.837 -31.611)" fill="#009b94"/>
    <path id="Path_607" data-name="Path 607" d="M74.73,45.844v4.285l.247,0a1.253,1.253,0,0,0,1.067-.488,1.156,1.156,0,0,0,.162-.633V45.844H74.73" transform="translate(-63.725 -31.7)" fill="#009b94"/>
    <path id="Path_608" data-name="Path 608" d="M84.952,45.83a1.251,1.251,0,0,0-1.067.488,1.178,1.178,0,0,0-.158.633V48.9H81.852a.83.83,0,0,1-.712-.253A.977.977,0,0,1,81,48.017v-2.2H79.523v2.3a1.957,1.957,0,0,0,.467,1.47A2.66,2.66,0,0,0,82,50.115h1.73v1.837H85.2V45.83h-.25" transform="translate(-66.473 -31.687)" fill="#009b94"/>
    <path id="Path_609" data-name="Path 609" d="M182.591,43.379v-.817h-1.477v.817c0,.33-.209.6-.832.6H178.6V41.307a1.166,1.166,0,0,0-.158-.633,1.252,1.252,0,0,0-1.067-.49h-.248v6.69H178.6V44.882a1.7,1.7,0,0,0,.935.282h.783c.58,0,.794.295.794.622v1.088h1.477v-1.1a1.308,1.308,0,0,0-.615-1.2,1.507,1.507,0,0,0,.615-1.2" transform="translate(-122.433 -28.455)" fill="#009b94"/>
    <path id="Path_610" data-name="Path 610" d="M96.132,48.9a.907.907,0,0,1-.737-.26.942.942,0,0,1-.147-.625v-.088a.969.969,0,0,1,.152-.633.826.826,0,0,1,.7-.257h2.325V48.9Zm2.6-3.075H96.267a2.717,2.717,0,0,0-1.952.627,1.965,1.965,0,0,0-.562,1.425v.18a1.89,1.89,0,0,0,.558,1.433,2.651,2.651,0,0,0,1.927.62H99.9V45.82h-1.17" transform="translate(-74.632 -31.687)" fill="#009b94"/>
    <path id="Path_611" data-name="Path 611" d="M148.947,48.9a.909.909,0,0,1-.737-.26.942.942,0,0,1-.147-.625v-.088a.968.968,0,0,1,.152-.633.825.825,0,0,1,.7-.257h2.252V48.9Zm2.6-3.075h-2.463a2.714,2.714,0,0,0-1.952.627,1.952,1.952,0,0,0-.562,1.425v.18a1.908,1.908,0,0,0,.555,1.433,2.662,2.662,0,0,0,1.93.62h3.587V45.82h-1.1" transform="translate(-104.913 -31.687)" fill="#009b94"/>
    <path id="Path_612" data-name="Path 612" d="M113.973,44.961v.582a.94.94,0,0,1-.15.625.9.9,0,0,1-.735.26h-1.563a.9.9,0,0,1-.733-.26.924.924,0,0,1-.15-.625v-.088a.968.968,0,0,1,.152-.633.831.831,0,0,1,.7-.257h2.477Zm1.227-3.442a1.248,1.248,0,0,0-1.068.488,1.173,1.173,0,0,0-.158.63v.715H111.66a2.712,2.712,0,0,0-1.95.627,1.965,1.965,0,0,0-.562,1.425v.18a1.9,1.9,0,0,0,.557,1.433,2.651,2.651,0,0,0,1.927.62h1.332a2.652,2.652,0,0,0,1.926-.62,1.9,1.9,0,0,0,.557-1.433V41.516l-.247,0" transform="translate(-83.458 -29.219)" fill="#009b94"/>
    <path id="Path_613" data-name="Path 613" d="M135.873,44.644a.931.931,0,0,1-.149.625.9.9,0,0,1-.733.26h-1.51a.9.9,0,0,1-.733-.26.941.941,0,0,1-.149-.625v-.978h2.418a.831.831,0,0,1,.7.257.979.979,0,0,1,.152.633Zm.933-1.563a2.721,2.721,0,0,0-1.953-.627H132.6V39.949l-.248,0a1.243,1.243,0,0,0-1.067.49,1.157,1.157,0,0,0-.163.633v3.612a1.891,1.891,0,0,0,.56,1.433,2.648,2.648,0,0,0,1.925.62h1.277a2.643,2.643,0,0,0,1.925-.62,1.885,1.885,0,0,0,.56-1.433v-.18a1.963,1.963,0,0,0-.562-1.425" transform="translate(-96.055 -28.321)" fill="#009b94"/>
    <path id="Path_614" data-name="Path 614" d="M86.652,24.442c0,.383.393.683.9.683s.9-.3.9-.683-.405-.68-.9-.68a.814.814,0,0,0-.9.68" transform="translate(-70.56 -19.04)" fill="#323894"/>
    <path id="Path_615" data-name="Path 615" d="M174.695,24.442c0,.383.4.683.9.683s.9-.3.9-.683a.936.936,0,0,0-1.8,0" transform="translate(-121.037 -19.04)" fill="#323894"/>
    <path id="Path_616" data-name="Path 616" d="M106.43,39.088c0,.382.393.68.9.68s.9-.3.9-.68-.393-.682-.9-.682a.815.815,0,0,0-.9.682" transform="translate(-81.899 -27.436)" fill="#323894"/>
    <path id="Path_617" data-name="Path 617" d="M110.5,39.088c0,.382.4.68.9.68s.9-.3.9-.68-.4-.682-.9-.682-.9.3-.9.682" transform="translate(-84.233 -27.436)" fill="#323894"/>
    <path id="Path_618" data-name="Path 618" d="M183.031,39.068c0,.392.4.7.917.7s.918-.3.918-.7-.4-.7-.918-.7a.832.832,0,0,0-.917.7" transform="translate(-125.817 -27.416)" fill="#323894"/>
    <path id="Path_619" data-name="Path 619" d="M155.63,26.352l-.412.893a.632.632,0,0,0-.058.263.5.5,0,0,0,.085.283.839.839,0,0,0,.542.3c-.08.173-.362.74-.362.74h1.294l.411-.97a.654.654,0,0,0,.057-.26.484.484,0,0,0-.087-.28.773.773,0,0,0-.523-.273c.078-.167.345-.7.345-.7H155.63" transform="translate(-109.837 -20.525)" fill="#323894"/>
    <path id="Path_620" data-name="Path 620" d="M137.684,22.895h-1.145v6.138h.068a1.817,1.817,0,0,0,.983-.253,1.087,1.087,0,0,0,.52-.95V22.895h-.427" transform="translate(-99.162 -18.543)" fill="#323894"/>
    <path id="Path_621" data-name="Path 621" d="M156.152,24.116a1.092,1.092,0,0,0-.517-.95,1.844,1.844,0,0,0-.983-.252h-.069v3.552a1.322,1.322,0,0,1-.343,1c-.37.372-.73.467-2.02.467h-.661a4.282,4.282,0,0,1-1.425-.1,1.058,1.058,0,0,1-.54-.382,1.3,1.3,0,0,1-.155-.73V25.052h-1.572v1.615a2.135,2.135,0,0,0,.688,1.787,3.755,3.755,0,0,0,2.315.592h2.092a2.9,2.9,0,0,0,2.333-.8,2.544,2.544,0,0,0,2.1.808h6.472a1.993,1.993,0,0,0,1.645-.578,1.484,1.484,0,0,0,.3-.972V25.054h-.07a1.84,1.84,0,0,0-.982.252,1.09,1.09,0,0,0-.52.952v1.222a.37.37,0,0,1-.07.248c-.067.068-.173.1-.4.1H161V25.056h-1.57v2.767H157.5a1.615,1.615,0,0,1-.968-.267.987.987,0,0,1-.382-.873V24.116" transform="translate(-105.656 -18.554)" fill="#323894"/>
    <path id="Path_622" data-name="Path 622" d="M118.4,28.531c0,.6-.125.917-1.273,1.208l-.193.05.127.968.221-.028c1.592-.212,2.575-.84,2.653-1.685h2.685a2,2,0,0,0,1.643-.578,1.491,1.491,0,0,0,.3-.972v-4.6h-.069a1.808,1.808,0,0,0-.983.253,1.087,1.087,0,0,0-.522.95v3.37a.369.369,0,0,1-.068.248c-.067.068-.175.1-.4.1h-2.55v-1.57a1.091,1.091,0,0,0-.52-.95,1.829,1.829,0,0,0-.983-.25H118.4v3.49" transform="translate(-87.919 -18.543)" fill="#323894"/>
    <path id="Path_623" data-name="Path 623" d="M105.11,25.041v2.427a.39.39,0,0,1-.07.248c-.069.068-.177.1-.4.1h-2.781c-.225,0-.335-.027-.4-.1a.379.379,0,0,1-.07-.248V24.1a1.083,1.083,0,0,0-.518-.95,1.812,1.812,0,0,0-.983-.253h-.068v4.6a1.481,1.481,0,0,0,.3.972,1.993,1.993,0,0,0,1.643.578h2.979a1.986,1.986,0,0,0,1.641-.578,1.473,1.473,0,0,0,.3-.972V25.041H105.11" transform="translate(-78.108 -18.543)" fill="#323894"/>
    <path id="Path_624" data-name="Path 624" d="M69.258,29.6a1.321,1.321,0,0,1-.323,1c-.37.373-.732.467-2.023.467h-.678a4.388,4.388,0,0,1-1.427-.1,1.018,1.018,0,0,1-.538-.385,1.288,1.288,0,0,1-.158-.73v-.308a1.1,1.1,0,0,0-.522-.952,1.844,1.844,0,0,0-.983-.25h-.065V29.8a2.127,2.127,0,0,0,.692,1.787,3.762,3.762,0,0,0,2.315.593h2.147a3.185,3.185,0,0,0,2.448-.775,1.44,1.44,0,0,0,.3-.46h5.1a1.989,1.989,0,0,0,1.642-.578,1.473,1.473,0,0,0,.3-.972v-2.45H73.658a10.825,10.825,0,0,0-1.46.08,3.38,3.38,0,0,0-1.415.483v-1.3H69.258Zm6.655-1.557v1.327a.355.355,0,0,1-.073.248c-.063.068-.173.1-.4.1H70.776v-.1c0-1.432,1.19-1.57,3.493-1.57h1.643" transform="translate(-56.736 -20.444)" fill="#323894"/>
  </g>
</svg>
