<svg id="list_more_categorey" data-name="list more categorey" xmlns="http://www.w3.org/2000/svg" width="24" height="24" viewBox="0 0 24 24">
  <g id="icon" transform="translate(22290 16882)">
    <rect id="Rectangle_7374" data-name="Rectangle 7374" width="24" height="24" transform="translate(-22290 -16882)" fill="rgba(255,255,255,0)"/>
    <g id="more-options-ellipsis-icon" transform="translate(-22288.129 -16880.129)">
      <path id="Path_11050" data-name="Path 11050" d="M0,10.129A10.132,10.132,0,1,1,2.967,17.29,10.1,10.1,0,0,1,0,10.129Zm15.216,0a1.19,1.19,0,1,1-1.19-1.192,1.191,1.191,0,0,1,1.19,1.192Zm-7.964,0A1.191,1.191,0,1,1,6.06,8.937a1.19,1.19,0,0,1,1.192,1.192Zm3.983,0a1.19,1.19,0,1,1-1.19-1.192,1.191,1.191,0,0,1,1.19,1.192ZM4.154,4.154a8.452,8.452,0,1,0,5.974-2.473A8.427,8.427,0,0,0,4.154,4.154Z" fill="#237eae"/>
    </g>
  </g>
</svg>
