<svg id="Payment_gateway" data-name="Payment gateway" xmlns="http://www.w3.org/2000/svg" width="24" height="24" viewBox="0 0 24 24">
  <rect id="Rectangle_7365" data-name="Rectangle 7365" width="24" height="24" fill="rgba(255,255,255,0)"/>
  <g id="secure-payment-svgrepo-com" transform="translate(1 -26)">
    <path id="Path_11028" data-name="Path 11028" d="M19.993,28H1.675A1.677,1.677,0,0,0,0,29.675V40.53A1.677,1.677,0,0,0,1.675,42.2H9.138a.318.318,0,0,0,0-.636H1.675A1.04,1.04,0,0,1,.636,40.53V29.675a1.04,1.04,0,0,1,1.039-1.039H19.993a1.04,1.04,0,0,1,1.039,1.039V40.53a.318.318,0,1,0,.636,0V29.675A1.677,1.677,0,0,0,19.993,28Z" fill="#02466a"/>
    <path id="Path_11029" data-name="Path 11029" d="M56.318,292.636h6.445a.318.318,0,0,0,0-.636H56.318a.318.318,0,0,0,0,.636Z" transform="translate(-53.625 -252.806)" fill="#02466a"/>
    <path id="Path_11030" data-name="Path 11030" d="M60.028,102.353V101a1,1,0,0,0-1-1H57a1,1,0,0,0-1,1v1.357a1,1,0,0,0,1,1h2.035A1,1,0,0,0,60.028,102.353Zm-3.392,0v-.36H57a.318.318,0,1,0,0-.636h-.36V101a.361.361,0,0,1,.36-.36h.7v2.078H57A.361.361,0,0,1,56.636,102.353Zm2.4.36h-.7v-2.078h.7a.361.361,0,0,1,.36.36v.36h-.36a.318.318,0,1,0,0,.636h.36v.36A.361.361,0,0,1,59.032,102.714Z" transform="translate(-53.625 -68.947)" fill="#02466a"/>
    <path id="Path_11031" data-name="Path 11031" d="M56,229a.318.318,0,0,0,.636,0v-.678a.318.318,0,1,0-.636,0Z" transform="translate(-53.625 -191.52)" fill="#02466a"/>
    <path id="Path_11032" data-name="Path 11032" d="M80,228.318V229a.318.318,0,0,0,.636,0v-.678a.318.318,0,1,0-.636,0Z" transform="translate(-76.608 -191.52)" fill="#02466a"/>
    <path id="Path_11033" data-name="Path 11033" d="M104,228.318V229a.318.318,0,0,0,.636,0v-.678a.318.318,0,1,0-.636,0Z" transform="translate(-99.59 -191.52)" fill="#02466a"/>
    <path id="Path_11034" data-name="Path 11034" d="M128,228.318V229a.318.318,0,0,0,.636,0v-.678a.318.318,0,1,0-.636,0Z" transform="translate(-122.573 -191.52)" fill="#02466a"/>
    <path id="Path_11035" data-name="Path 11035" d="M160.636,229v-.678a.318.318,0,1,0-.636,0V229a.318.318,0,0,0,.636,0Z" transform="translate(-153.216 -191.52)" fill="#02466a"/>
    <path id="Path_11036" data-name="Path 11036" d="M184.636,229v-.678a.318.318,0,1,0-.636,0V229a.318.318,0,0,0,.636,0Z" transform="translate(-176.198 -191.52)" fill="#02466a"/>
    <path id="Path_11037" data-name="Path 11037" d="M208.318,228a.318.318,0,0,0-.318.318V229a.318.318,0,0,0,.636,0v-.678A.318.318,0,0,0,208.318,228Z" transform="translate(-199.18 -191.52)" fill="#02466a"/>
    <path id="Path_11038" data-name="Path 11038" d="M232.636,229v-.678a.318.318,0,1,0-.636,0V229a.318.318,0,0,0,.636,0Z" transform="translate(-222.163 -191.52)" fill="#02466a"/>
    <path id="Path_11039" data-name="Path 11039" d="M331.71,103.35a1.675,1.675,0,1,0,0-3.35h-2.035a1.675,1.675,0,1,0,0,3.35Zm-3.074-1.675a1.04,1.04,0,0,1,1.039-1.039h2.035a1.039,1.039,0,0,1,0,2.078h-2.035A1.04,1.04,0,0,1,328.636,101.675Z" transform="translate(-314.092 -68.947)" fill="#02466a"/>
    <path id="Path_11040" data-name="Path 11040" d="M249.913,229.27a.318.318,0,0,0-.248-.049,4.119,4.119,0,0,1-.866.094,4.072,4.072,0,0,1-3.462-1.919.318.318,0,0,0-.538,0,4.072,4.072,0,0,1-3.462,1.919,4.12,4.12,0,0,1-.866-.094.318.318,0,0,0-.382.264,8.01,8.01,0,0,0,4.878,8.591.318.318,0,0,0,.2,0,8.01,8.01,0,0,0,4.878-8.591A.318.318,0,0,0,249.913,229.27Zm-7.994,5.6a7.732,7.732,0,0,1-1.283-4.221,7.192,7.192,0,0,1,.04-.747,4.7,4.7,0,0,0,4.073-1.414v8.822A6.6,6.6,0,0,1,241.919,234.87Zm6.3,0a6.6,6.6,0,0,1-2.83,2.44v-8.822a4.7,4.7,0,0,0,4.073,1.414,7.192,7.192,0,0,1,.04.747A7.732,7.732,0,0,1,248.215,234.87Z" transform="translate(-229.823 -190.798)" fill="#02466a"/>
  </g>
</svg>
