<svg xmlns="http://www.w3.org/2000/svg" width="36" height="36" viewBox="0 0 36 36">
  <g id="Group_17578" data-name="Group 17578" transform="translate(22024 -10561)">
    <circle id="Ellipse_268" data-name="Ellipse 268" cx="18" cy="18" r="18" transform="translate(-22024 10561)" fill="rgba(58,227,116,0.1)"/>
    <g id="icon-20-star" transform="translate(-22018 10567)">
      <rect id="Bounding_box" data-name="Bounding box" width="24" height="24" fill="rgba(255,255,255,0)"/>
      <path id="Icon_color" data-name="Icon color" d="M.2,7.854a.49.49,0,0,1-.18-.54l.08-.25a.49.49,0,0,1,.44-.35l6.384-.51L9.373.321A.51.51,0,0,1,9.882,0h.26a.49.49,0,0,1,.47.32l2.458,5.885,6.384.51a.49.49,0,0,1,.44.35l.08.25a.49.49,0,0,1-.15.54l-4.815,4.136,1.479,6.2a.51.51,0,0,1-.19.53l-.29.16a.5.5,0,0,1-.559,0l-5.435-3.3L4.547,18.914a.5.5,0,0,1-.559,0l-.22-.15a.51.51,0,0,1-.19-.53l1.439-6.244Z" transform="translate(2 2)" fill="#3ae374"/>
    </g>
  </g>
</svg>
