<svg id="best_seller" data-name="best seller" xmlns="http://www.w3.org/2000/svg" width="24" height="24" viewBox="0 0 24 24">
  <rect id="Rectangle_7392" data-name="Rectangle 7392" width="24" height="24" fill="rgba(255,255,255,0)"/>
  <path id="excellence-honor-icon" d="M12.466,12.744l2.107,4.928-2.642-.031L9.76,19.4l-1.9-4.642A4.336,4.336,0,0,0,9.5,13.917l.066-.049v0l.036-.028,0,0c.07-.056.142-.113.206-.162a3.988,3.988,0,0,0,.456.005,3.036,3.036,0,0,0,.805-.145,4.033,4.033,0,0,0,.717-.306,3.71,3.71,0,0,0,.636-.442l0,0,.048-.041ZM7.065,0A2.009,2.009,0,0,1,7.784.11a2.7,2.7,0,0,1,.57.285A4.6,4.6,0,0,1,8.9.818a4,4,0,0,0,.573.433l.013.008a2.313,2.313,0,0,0,.507.047,2.361,2.361,0,0,1,2.19.97l.034.054a3.034,3.034,0,0,1,.5,1.677l0,.035a1.684,1.684,0,0,0,.075.438,2.019,2.019,0,0,0,.309.539,4.277,4.277,0,0,1,.83,1.6,2.213,2.213,0,0,1-.252,1.649,3.056,3.056,0,0,1-.745.833c-.09.077-.135.062-.153.1l-.018.04a1.5,1.5,0,0,0-.048.441,2.824,2.824,0,0,1-.3,1.393,2.864,2.864,0,0,1-.7.895,2.808,2.808,0,0,1-.983.542,2.377,2.377,0,0,1-.978.081c-.111-.008-.189-.027-.2-.021a3.137,3.137,0,0,0-.635.433l-.048.036a2.6,2.6,0,0,1-3.672-.036,2.987,2.987,0,0,0-.636-.43,1.3,1.3,0,0,0-.2.018,2.376,2.376,0,0,1-.978-.081,2.8,2.8,0,0,1-1.683-1.437,2.817,2.817,0,0,1-.3-1.394A1.316,1.316,0,0,0,1.345,9.2c-.02-.047-.063-.024-.156-.1a3.046,3.046,0,0,1-.745-.833A2.213,2.213,0,0,1,.193,6.616a4.266,4.266,0,0,1,.83-1.6,1.975,1.975,0,0,0,.308-.539l.01-.028a1.712,1.712,0,0,0,.066-.409l0-.054a3.015,3.015,0,0,1,.536-1.708,2.358,2.358,0,0,1,2.191-.973,1.984,1.984,0,0,0,.521-.053A4.148,4.148,0,0,0,5.231.817L5.279.778A4.547,4.547,0,0,1,5.773.4,2.591,2.591,0,0,1,6.345.11,2.005,2.005,0,0,1,7.065,0Zm0,.7a1.424,1.424,0,0,1,.858.27c.335.213.713.633,1.179.9.656.375,1.871-.143,2.493.782A2.42,2.42,0,0,1,12,4.031a2.428,2.428,0,0,0,.569,1.474c.763,1.009.922,1.681.529,2.381-.268.477-.833.742-.963,1.045-.278.643.03,1.128-.351,1.877a2,2,0,0,1-1.215,1.038c-.458.147-.917-.066-1.283.088-.644.27-1.119.9-1.631,1.058a1.985,1.985,0,0,1-1.183,0c-.513-.159-.987-.788-1.631-1.058-.367-.154-.826.059-1.284-.088a2,2,0,0,1-1.214-1.038c-.381-.749-.073-1.234-.351-1.877-.131-.3-.7-.567-.963-1.045-.393-.7-.234-1.372.529-2.381a2.428,2.428,0,0,0,.569-1.474,2.423,2.423,0,0,1,.407-1.379c.622-.924,1.837-.407,2.493-.782.466-.267.844-.687,1.179-.9A1.424,1.424,0,0,1,7.065.7Zm.077,4.4.5,1.169,1.266.113a.1.1,0,0,1,.058.178L8.008,7.4l.283,1.24a.1.1,0,0,1-.155.108L7.048,8.1l-1.091.652a.1.1,0,0,1-.151-.11L6.089,7.4l-.958-.836a.1.1,0,0,1,.061-.178l1.263-.113.5-1.169a.1.1,0,0,1,.187,0ZM7.048,2.99a3.98,3.98,0,1,1-3.98,3.98,3.98,3.98,0,0,1,3.98-3.98Zm0,.672A3.308,3.308,0,1,1,3.74,6.97,3.308,3.308,0,0,1,7.048,3.662ZM7.035,14.854,4.813,20.419,2.642,18.658,0,18.689l2.3-5.482.042.024a4.093,4.093,0,0,0,.715.3,3.03,3.03,0,0,0,.8.145,4.03,4.03,0,0,0,.452,0c.065.049.14.109.212.167h0a4.069,4.069,0,0,0,2.461,1.011h.042Z" transform="translate(5 2)" fill="#1dbbbe" fill-rule="evenodd"/>
</svg>
