<svg id="porder" xmlns="http://www.w3.org/2000/svg" width="24" height="24" viewBox="0 0 24 24">
  <rect id="Rectangle_7415" data-name="Rectangle 7415" width="24" height="24" fill="rgba(255,255,255,0)"/>
  <path id="Path_11059" data-name="Path 11059" d="M9,9V1h2V9h8v2H11v8H9V11H1V9ZM1,1H3V3H1ZM1,5H3V7H1Zm0,8H3v2H1Zm0,4H3v2H1ZM5,1H7V3H5ZM5,17H7v2H5ZM13,1h2V3H13Zm0,16h2v2H13ZM17,1h2V3H17Zm0,4h2V7H17Zm0,8h2v2H17Zm0,4h2v2H17Z" transform="translate(2 2)" fill="#1dbbbe" stroke="#1dbbbe" stroke-width="2"/>
</svg>
