<svg id="copy_icon" data-name="copy icon" xmlns="http://www.w3.org/2000/svg" width="24" height="24" viewBox="0 0 24 24">
  <rect id="Rectangle_7361" data-name="Rectangle 7361" width="24" height="24" fill="rgba(255,255,255,0)"/>
  <g id="Group_17590" data-name="Group 17590">
    <path id="Path_11024" data-name="Path 11024" d="M0,0H24V24H0Z" fill="none"/>
    <path id="Path_11025" data-name="Path 11025" d="M7,6V3A1,1,0,0,1,8,2H20a1,1,0,0,1,1,1V17a1,1,0,0,1-1,1H17v3a1,1,0,0,1-1.007,1H4.007A1,1,0,0,1,3,21L3,7A1,1,0,0,1,4.01,6ZM5,8,5,20H15V8ZM9,6h8V16h2V4H9Z" fill="#02466a"/>
  </g>
</svg>
