<?xml version="1.0" encoding="utf-8"?>
<!-- Generator: Adobe Illustrator 24.2.3, SVG Export Plug-In . SVG Version: 6.00 Build 0)  -->
<svg version="1.1" id="Layer_1" xmlns="http://www.w3.org/2000/svg" xmlns:xlink="http://www.w3.org/1999/xlink" x="0px" y="0px"
	 viewBox="0 0 50 50" style="enable-background:new 0 0 50 50;" xml:space="preserve">
<style type="text/css">
	.st0{fill:#BDBE07;}
	.st1{fill:none;}
	.st2{fill:url(#SVGID_1_);}
	.st3{fill:url(#SVGID_2_);}
	.st4{fill:url(#SVGID_3_);}
	.st5{fill:url(#SVGID_4_);}
	.st6{fill:url(#SVGID_5_);}
	.st7{fill:url(#SVGID_6_);}
	.st8{fill:url(#SVGID_7_);}
	.st9{fill:url(#SVGID_8_);}
	.st10{fill:url(#SVGID_9_);}
	.st11{fill:url(#SVGID_10_);}
	.st12{fill:#FFFFFF;}
	.st13{opacity:0.2;fill:#FFFFFF;}
	.st14{fill:#28B5BC;}
	.st15{opacity:0.1;fill:url(#SVGID_11_);}
	.st16{fill:#3563AC;}
	.st17{fill:url(#SVGID_12_);}
	.st18{fill:url(#SVGID_13_);}
	.st19{fill:url(#SVGID_14_);}
	.st20{fill:url(#SVGID_15_);}
	.st21{fill:url(#SVGID_16_);}
	.st22{fill:url(#SVGID_17_);}
	.st23{fill:url(#SVGID_18_);}
	.st24{fill:url(#SVGID_19_);}
	.st25{fill:url(#SVGID_20_);}
	.st26{fill:url(#SVGID_21_);}
	.st27{fill:url(#SVGID_22_);}
	.st28{fill:url(#SVGID_23_);}
	.st29{fill:url(#SVGID_24_);}
	.st30{fill:url(#SVGID_25_);}
</style>
<linearGradient id="SVGID_1_" gradientUnits="userSpaceOnUse" x1="6.2531" y1="25.9978" x2="43.7469" y2="25.9978">
	<stop  offset="0" style="stop-color:#28B5BC"/>
	<stop  offset="0.171" style="stop-color:#2097A5"/>
	<stop  offset="0.415" style="stop-color:#16728A"/>
	<stop  offset="0.6422" style="stop-color:#0F5776"/>
	<stop  offset="0.844" style="stop-color:#0B476A"/>
	<stop  offset="0.9996" style="stop-color:#094166"/>
</linearGradient>
<path class="st2" d="M34.19,41.05c-0.39,0.02-0.78,0.03-1.17,0.07c-0.76,0.09-1.27,0.59-1.72,1.15c-0.3,0.37-0.58,0.76-0.9,1.11
	c-0.9,1-1.54,1.13-2.77,0.58c-0.59-0.26-1.18-0.53-1.78-0.78c-0.66-0.28-1.31-0.18-1.94,0.09c-0.57,0.25-1.13,0.55-1.7,0.79
	c-1.15,0.48-1.85,0.26-2.69-0.75c-0.42-0.5-0.82-1.02-1.26-1.51c-0.45-0.51-1.06-0.69-1.72-0.71c-0.57-0.02-1.15,0.01-1.73-0.01
	c-0.47-0.02-0.95-0.07-1.36-0.34c-0.55-0.36-0.75-0.93-0.91-1.53c-0.16-0.61-0.3-1.23-0.46-1.84c-0.18-0.67-0.62-1.12-1.22-1.43
	c-0.6-0.31-1.21-0.58-1.8-0.9c-0.54-0.3-1.02-0.7-1.07-1.36c-0.03-0.5,0.05-1.02,0.13-1.52c0.08-0.53,0.24-1.05,0.32-1.58
	c0.13-0.85-0.3-1.51-0.8-2.16c-0.42-0.54-0.83-1.11-1.18-1.7c-0.35-0.59-0.23-1.21,0.12-1.75c0.36-0.56,0.76-1.09,1.19-1.59
	c0.72-0.84,0.8-1.77,0.53-2.79c-0.14-0.56-0.24-1.13-0.32-1.7c-0.14-0.99,0.4-1.6,1.22-2.03c0.53-0.27,1.06-0.55,1.6-0.8
	c0.85-0.39,1.23-1.11,1.44-1.97c0.17-0.69,0.35-1.37,0.57-2.04c0.24-0.72,0.83-1.04,1.55-1.09c0.71-0.05,1.42-0.06,2.12-0.06
	c0.87-0.01,1.55-0.39,2.08-1.07c0.38-0.5,0.77-1,1.2-1.45c0.8-0.81,1.45-0.86,2.44-0.45c0.56,0.23,1.1,0.5,1.65,0.77
	c0.86,0.43,1.69,0.3,2.52-0.1c0.55-0.26,1.09-0.53,1.65-0.76c1.03-0.41,1.75,0.02,2.39,0.76c0.45,0.52,0.87,1.06,1.32,1.58
	c0.45,0.51,1.05,0.69,1.7,0.71c0.56,0.02,1.13-0.01,1.7,0.01c0.32,0.01,0.65,0.06,0.97,0.15c0.77,0.21,1.1,0.83,1.29,1.54
	c0.15,0.55,0.29,1.11,0.41,1.67c0.19,0.86,0.68,1.46,1.47,1.85c0.63,0.3,1.27,0.6,1.87,0.97c0.79,0.48,1.05,1.26,0.86,2.16
	c-0.17,0.79-0.33,1.58-0.44,2.38c-0.09,0.65,0.23,1.19,0.61,1.69c0.41,0.54,0.83,1.07,1.21,1.62c0.45,0.64,0.48,1.33,0.05,1.99
	c-0.37,0.56-0.78,1.09-1.2,1.62c-0.52,0.66-0.87,1.36-0.69,2.23c0.08,0.39,0.17,0.78,0.25,1.17c0.07,0.37,0.16,0.74,0.2,1.12
	c0.09,0.79-0.18,1.42-0.88,1.83c-0.5,0.29-1.01,0.59-1.55,0.8c-1.21,0.47-1.74,1.4-1.95,2.61c-0.08,0.48-0.21,0.95-0.36,1.41
	c-0.28,0.84-0.9,1.27-1.77,1.31c-0.44,0.02-0.88,0-1.31,0C34.19,41.03,34.19,41.04,34.19,41.05z"/>
<path class="st12" d="M17.54,31.25c0.01-0.69,0.32-1.25,0.79-1.72c1.1-1.11,2.2-2.21,3.31-3.31c0.17-0.17,0.18-0.26,0-0.43
	c-1.11-1.1-2.22-2.2-3.31-3.31c-0.47-0.47-0.77-1.02-0.79-1.72c-0.02-0.94,0.72-1.78,1.42-2.05c0.89-0.34,1.67-0.12,2.32,0.48
	c1.05,0.98,2.05,2.02,3.07,3.04c0.15,0.15,0.3,0.29,0.44,0.44c0.14,0.17,0.24,0.16,0.4,0c1.04-1.05,2.1-2.09,3.14-3.15
	c0.41-0.42,0.87-0.76,1.42-0.91c0.41-0.11,0.85-0.09,1.27,0.1c0.6,0.27,1.03,0.68,1.27,1.29c0.37,0.96,0.04,1.74-0.6,2.43
	c-0.57,0.61-1.17,1.18-1.76,1.77c-0.53,0.53-1.06,1.07-1.6,1.6c-0.16,0.15-0.16,0.24,0,0.4c1.05,1.04,2.09,2.1,3.15,3.14
	c0.42,0.41,0.76,0.87,0.92,1.42c0.15,0.55,0.04,1.1-0.26,1.59c-0.46,0.76-1.32,1.25-2.27,1.07c-0.53-0.1-0.99-0.39-1.38-0.79
	c-0.86-0.88-1.74-1.74-2.61-2.62c-0.23-0.23-0.46-0.44-0.68-0.68c-0.15-0.16-0.24-0.16-0.4,0c-1.1,1.11-2.21,2.21-3.31,3.32
	c-0.38,0.39-0.84,0.67-1.36,0.77c-0.77,0.15-1.46-0.11-1.99-0.69C17.76,32.31,17.53,31.83,17.54,31.25z"/>
</svg>
