<?xml version="1.0" encoding="utf-8"?>
<!-- Generator: Adobe Illustrator 24.0.1, SVG Export Plug-In . SVG Version: 6.00 Build 0)  -->
<svg version="1.1" id="Layer_1" xmlns="http://www.w3.org/2000/svg" xmlns:xlink="http://www.w3.org/1999/xlink" x="0px" y="0px"
	 viewBox="0 0 1000 1000" style="enable-background:new 0 0 1000 1000;" xml:space="preserve">
<style type="text/css">
	.st0{fill:#FADE63;}
	.st1{fill:#FF7D05;}
	.st2{fill:#8628FE;}
	.st3{fill:#FFFFFF;}
	.st4{fill:#acb5b9;}
	.st5{fill:#DBD9D9;}
	.st6{fill:#BCBCBC;}
</style>
<circle class="st4" cx="490.72" cy="500" r="352.34"/>
<g>
	<path class="st5" d="M660.04,506.28v92.09c0,0,0,72.14-66.89,72.14h-74.76V506.28H660.04z"/>
	<path class="st6" d="M518.38,270.47v250.52h219.04V349.16c0,0,9.84-78.7-91.81-78.7H518.38z"/>
	<path class="st3" d="M333.39,270.47c-101.65,0-89.13,95.75-89.13,95.75l2.57,222.18c-0.66,82.11,74.76,84.57,74.76,84.57
		l83.94,2.68l6.56,53.89l108.86-59.02V270.47H333.39z M371.35,458.03c-33.25,0-60.2-26.95-60.2-60.2c0-33.25,26.95-60.2,60.2-60.2
		s60.2,26.95,60.2,60.2C431.54,431.08,404.59,458.03,371.35,458.03z"/>
</g>
</svg>
