<svg id="link" xmlns="http://www.w3.org/2000/svg" width="24" height="24" viewBox="0 0 24 24">
  <rect id="Rectangle_7250" data-name="Rectangle 7250" width="24" height="24" fill="rgba(255,255,255,0)"/>
  <path id="Path_896" data-name="Path 896" d="M13.061,8.111l1.414,1.414a7,7,0,0,1,0,9.9l-.354.354a7,7,0,1,1-9.9-9.9l1.414,1.414a5,5,0,0,0,7.071,7.071l.354-.354a5,5,0,0,0,0-7.071L11.646,9.525Zm6.717,6.01-1.414-1.414a5,5,0,1,0-7.071-7.071l-.353.354a5,5,0,0,0,0,7.071l1.414,1.414-1.414,1.414L9.525,14.475a7,7,0,0,1,0-9.9l.354-.354a7,7,0,0,1,9.9,9.9Z" transform="translate(0.829 -0.172)" fill="#1dbbbe"/>
</svg>
