<svg xmlns="http://www.w3.org/2000/svg" width="71.894" height="23.973" viewBox="0 0 71.894 23.973">
  <g id="mada" transform="translate(0)">
    <rect id="Rectangle_7052" data-name="Rectangle 7052" width="30.412" height="10.131" transform="translate(0 13.824)" fill="#84b740"/>
    <rect id="Rectangle_7053" data-name="Rectangle 7053" width="30.412" height="10.14" transform="translate(0 0)" fill="#259bd6"/>
    <path id="Path_629" data-name="Path 629" d="M384.307,265.887l-.136.027a4.434,4.434,0,0,1-.984.126c-.795,0-1.734-.406-1.734-2.32,0-.984.162-2.294,1.643-2.294h.009a4.451,4.451,0,0,1,1.083.208l.117.036v4.217Zm.244-9.544-.244.045v3.54l-.217-.063-.063-.018a4.987,4.987,0,0,0-1.345-.235c-2.962,0-3.585,2.239-3.585,4.117,0,2.573,1.445,4.054,3.964,4.054a8.036,8.036,0,0,0,2.646-.37,1.169,1.169,0,0,0,.993-1.282V255.972c-.7.126-1.436.253-2.149.37" transform="translate(-323.483 -243.99)" fill="#27292d"/>
    <path id="Path_630" data-name="Path 630" d="M439.984,284.85l-.126.036-.452.117a4.707,4.707,0,0,1-1.093.172c-.7,0-1.111-.343-1.111-.93,0-.379.172-1.02,1.309-1.02h1.472v1.625Zm-1.038-6.384a9.993,9.993,0,0,0-3.016.524l-.759.226.253,1.716.74-.244a8.7,8.7,0,0,1,2.465-.415c.325,0,1.318,0,1.318,1.075v.47h-1.381c-2.519,0-3.684.8-3.684,2.528,0,1.472,1.075,2.357,2.88,2.357a9.306,9.306,0,0,0,2-.271l.036-.009.036.009.226.036c.7.126,1.436.253,2.149.388V281.22c0-1.824-1.1-2.754-3.269-2.754" transform="translate(-370.356 -262.89)" fill="#27292d"/>
    <path id="Path_631" data-name="Path 631" d="M330.168,284.85l-.126.036-.451.117a4.64,4.64,0,0,1-1.093.172c-.7,0-1.111-.343-1.111-.93,0-.379.172-1.02,1.3-1.02h1.472v1.625Zm-1.029-6.384a9.947,9.947,0,0,0-3.016.524l-.759.226.253,1.716.74-.244a8.7,8.7,0,0,1,2.465-.415c.325,0,1.318,0,1.318,1.075v.47h-1.382c-2.519,0-3.693.8-3.693,2.528,0,1.472,1.075,2.357,2.89,2.357a9.307,9.307,0,0,0,2-.271l.036-.009.036.009.217.036c.713.126,1.436.253,2.149.4v-5.635c.009-1.842-1.093-2.763-3.26-2.763" transform="translate(-278.084 -262.89)" fill="#27292d"/>
    <path id="Path_632" data-name="Path 632" d="M252.941,278.531a6.093,6.093,0,0,0-2.447.542l-.09.045-.081-.063a3.7,3.7,0,0,0-2.194-.533,8.976,8.976,0,0,0-2.592.388c-.768.235-1.065.6-1.065,1.3v6.438h2.4V280.7l.117-.036a3.058,3.058,0,0,1,1.057-.19.95.95,0,0,1,1.047,1.093v5.093h2.366v-5.192a1.752,1.752,0,0,0-.072-.524l-.081-.154.163-.072a2.849,2.849,0,0,1,1.174-.244.957.957,0,0,1,1.047,1.093v5.093h2.357V281.33c0-1.887-1.011-2.8-3.106-2.8" transform="translate(-210.366 -262.937)" fill="#27292d"/>
    <path id="Path_633" data-name="Path 633" d="M374.72,187.582a8.19,8.19,0,0,1-1.4-.126l-.135-.027v-3.476a1.7,1.7,0,0,0-.063-.5l-.072-.144.154-.063c.036-.018.072-.027.117-.045l.027-.018.162-.054a.228.228,0,0,1,.063-.018,5.61,5.61,0,0,1,1.237-.144h.009c1.472,0,1.643,1.309,1.643,2.294-.009,1.914-.957,2.321-1.743,2.321m-.009-6.61h-.063c-1.382,0-2.8.379-3.3,1.12a2.259,2.259,0,0,0-.434,1.345h0v3.585a1.063,1.063,0,0,1-.072.452l-.081.154h-4.361v-2.492h-.009c-.054-2.628-1.607-4.072-3.856-4.072h-2.194c-.09.641-.163,1.093-.253,1.734h2.185c1.147,0,1.752.975,1.752,2.474v2.51l-.153-.081a1.657,1.657,0,0,0-.515-.072h-3.774c-.072.478-.163,1.1-.262,1.725h11.6c.4-.081.858-.154,1.255-.217a6.534,6.534,0,0,0,2.429.442,4.308,4.308,0,0,0,.109-8.605" transform="translate(-306.862 -180.972)" fill="#27292d"/>
    <path id="Path_634" data-name="Path 634" d="M257.869,190.931h.108c2.519,0,3.693-.831,3.693-2.88a2.638,2.638,0,0,0-2.88-2.646H256.47a1,1,0,0,1-1.111-1.065c0-.451.172-1.011,1.309-1.011h5.075c.108-.659.162-1.075.262-1.734h-5.273c-2.456,0-3.693,1.029-3.693,2.745,0,1.7,1.075,2.582,2.88,2.582h2.321a1.1,1.1,0,0,1,1.111,1.129,1.134,1.134,0,0,1-1.3,1.165h-.388l-7.431-.018h-1.354c-1.147,0-1.95-.65-1.95-2.158V186c0-1.571.623-2.546,1.95-2.546h2.2c.1-.668.163-1.093.253-1.725h-3.007c-2.248,0-3.8,1.508-3.856,4.135h0v1.174c.054,2.628,1.607,3.883,3.856,3.883h2.194l4.027.009h3.323Z" transform="translate(-210.364 -181.495)" fill="#27292d"/>
  </g>
</svg>
