<svg id="menuu" xmlns="http://www.w3.org/2000/svg" width="24" height="24" viewBox="0 0 24 24">
  <rect id="Rectangle_7420" data-name="Rectangle 7420" width="24" height="24" fill="rgba(255,255,255,0)"/>
  <g id="menu">
    <path id="Path_11067" data-name="Path 11067" d="M9,12a1,1,0,1,1-1-1A1,1,0,0,1,9,12Z" fill="#02466a"/>
    <path id="Path_11068" data-name="Path 11068" d="M13,12a1,1,0,1,1-1-1A1,1,0,0,1,13,12Z" fill="#02466a"/>
    <path id="Path_11069" data-name="Path 11069" d="M17,12a1,1,0,1,1-1-1A1,1,0,0,1,17,12Z" fill="#02466a"/>
    <path id="Path_11070" data-name="Path 11070" d="M22,12c0,4.714,0,7.071-1.465,8.535S16.714,22,12,22s-7.071,0-8.536-1.465S2,16.714,2,12,2,4.929,3.464,3.464,7.286,2,12,2s7.071,0,8.535,1.464c.974.974,1.3,2.342,1.409,4.536" fill="none" stroke="#02466a" stroke-linecap="round" stroke-width="1.5"/>
  </g>
</svg>
