<svg id="Package" xmlns="http://www.w3.org/2000/svg" width="24" height="24" viewBox="0 0 24 24">
  <rect id="Rectangle_7394" data-name="Rectangle 7394" width="24" height="24" fill="rgba(255,255,255,0)"/>
  <path id="package-cancelled-icon" d="M12.952,1.533,8.506,4.189l5.217.709,4.29-2.676-5.06-.69Zm1.036,7.894a5.143,5.143,0,1,1-5.142,5.142,5.142,5.142,0,0,1,5.142-5.142Zm-1.982,4.251c-.165-.162-.3-.264-.091-.464l.665-.649c.211-.213.334-.2.53,0l.9.9.891-.891c.162-.165.264-.3.464-.091l.649.665c.213.211.2.334,0,.531l-.9.9.9.9c.2.2.212.32,0,.53l-.649.665c-.2.205-.3.073-.464-.091l-.891-.891-.9.9c-.2.2-.319.212-.53,0l-.665-.649c-.206-.2-.074-.3.091-.464l.891-.891ZM7.893,4.858l0,5.461L5.907,8.968l-1.983,1.12L4.159,4.35.747,3.887v12.06l6.9.892a6.69,6.69,0,0,0,.341.795L.358,16.647A.374.374,0,0,1,0,16.274V3.46a.372.372,0,0,1,.22-.339L7.032.03a.379.379,0,0,1,.2-.03L19.109,1.62a.374.374,0,0,1,.331.385h0l.02,8.815c-.22-.326-.6-.782-.768-1.07V2.678L14.229,5.565v2.3a6.737,6.737,0,0,0-.747.014V5.617L7.893,4.858ZM4.752,3.679,9.074,1,7.24.753,1.7,3.265l3.047.414Z" transform="translate(2 2.003)" fill="#ff9f1a" fill-rule="evenodd"/>
</svg>
