<svg id="send_note" data-name="send note" xmlns="http://www.w3.org/2000/svg" width="24" height="24" viewBox="0 0 24 24">
  <g id="Group_17546" data-name="Group 17546" transform="translate(4710 17972)">
    <rect id="Rectangle_7349" data-name="Rectangle 7349" width="24" height="24" transform="translate(-4710 -17972)" fill="rgba(255,255,255,0)"/>
    <path id="reply-note-icon" d="M16.652,0a5.223,5.223,0,1,0,3.693,1.53A5.208,5.208,0,0,0,16.652,0ZM5.431,3.976,1.94,7.666H5.431V3.976ZM0,8.366a.6.6,0,0,1,.018-.143A.578.578,0,0,1,.175,7.85L5.488,2.235A.582.582,0,0,1,6,1.936h4.845a6.651,6.651,0,0,0-.52,1.162H6.593V8.247a.581.581,0,0,1-.581.581H1.162V20.154H17.91V11.778a6.593,6.593,0,0,0,1.163-.335v8.718a1.16,1.16,0,0,1-1.155,1.155H1.155A1.16,1.16,0,0,1,0,20.161Zm13.88,3.392a.578.578,0,1,1,0,1.156H5.193a.578.578,0,1,1,0-1.156Zm0,3.9a.578.578,0,1,1,0,1.156H5.193a.578.578,0,1,1,0-1.156Zm.046-10.849,2.237,2.146V5.882a2.959,2.959,0,0,1,3.215.992,3.144,3.144,0,0,0-3.215-3.125V2.66L13.926,4.806Z" transform="translate(-4708.554 -17970.539)" fill="#b6be34" fill-rule="evenodd"/>
  </g>
</svg>
