<svg id="instagramm" xmlns="http://www.w3.org/2000/svg" width="24" height="24" viewBox="0 0 24 24">
  <rect id="Rectangle_7428" data-name="Rectangle 7428" width="24" height="24" fill="rgba(255,255,255,0)"/>
  <g id="Group_17812" data-name="Group 17812" transform="translate(3 3)">
    <path id="Path_11078" data-name="Path 11078" d="M9,0H9A9,9,0,1,1,0,9,9.026,9.026,0,0,1,9,0Z" fill="#02466a"/>
    <path id="Path_11079" data-name="Path 11079" d="M14.269,6H8.925A2.966,2.966,0,0,0,6,9.038v5.175A3.049,3.049,0,0,0,8.981,17.25h5.344a3.013,3.013,0,0,0,2.981-3.038V9.037A3.061,3.061,0,0,0,14.269,6Zm1.969,8.156a2.076,2.076,0,0,1-2.081,2.081H9.038a2.029,2.029,0,0,1-2.025-2.081V9.094A2.065,2.065,0,0,1,9.038,7.013h5.119a2.113,2.113,0,0,1,2.081,2.081Z" transform="translate(-2.625 -2.625)" fill="#fff"/>
    <path id="Path_11080" data-name="Path 11080" d="M13.724,10.9a2.869,2.869,0,0,0-.113,5.737,2.882,2.882,0,0,0,2.925-2.812v-.056A2.8,2.8,0,0,0,13.724,10.9Zm0,4.725a1.857,1.857,0,1,1-.113-3.713,1.872,1.872,0,0,1,1.913,1.8v.056A1.79,1.79,0,0,1,13.724,15.624Z" transform="translate(-4.724 -4.767)" fill="#fff"/>
    <path id="Path_11081" data-name="Path 11081" d="M20.819,9.4a.678.678,0,1,1-.619.675A.638.638,0,0,1,20.819,9.4Z" transform="translate(-8.837 -4.112)" fill="#fff"/>
  </g>
</svg>
