<svg id="shipping" xmlns="http://www.w3.org/2000/svg" width="24" height="24" viewBox="0 0 24 24">
  <rect id="Rectangle_7364" data-name="Rectangle 7364" width="24" height="24" fill="rgba(255,255,255,0)"/>
  <path id="shipping-2" data-name="shipping" d="M0,6V7.213H11.524v9.1H7.79a2.4,2.4,0,0,0-4.663,0h-.7V13.278H1.213v4.246H3.127a2.4,2.4,0,0,0,4.663,0h5.042a2.4,2.4,0,0,0,4.663,0h1.914V12.577l-.038-.095L18.158,8.843l-.133-.417H12.737V6ZM.607,8.426V9.639H6.065V8.426ZM12.737,9.639h4.416L18.2,12.748v3.563h-.7a2.4,2.4,0,0,0-4.663,0h-.095ZM1.213,10.852v1.213H4.852V10.852ZM5.459,15.7a1.213,1.213,0,1,1-1.213,1.213A1.2,1.2,0,0,1,5.459,15.7Zm9.7,0a1.213,1.213,0,1,1-1.213,1.213A1.2,1.2,0,0,1,15.163,15.7Z" transform="translate(2.436 -0.389)" fill="#02466a"/>
</svg>
