<svg id="Stationery" xmlns="http://www.w3.org/2000/svg" width="20.001" height="20.001" viewBox="0 0 20.001 20.001">
  <rect id="Rectangle_7386" data-name="Rectangle 7386" width="20" height="20" transform="translate(0.001 0.001)" fill="rgba(255,255,255,0)"/>
  <g id="stationery-learning-brush-svgrepo-com">
    <path id="Path_11051" data-name="Path 11051" d="M15.414,25.356l-3.924,1.68,1.68-3.923L25.5,10.784a1.588,1.588,0,0,1,2.243,0h0a1.588,1.588,0,0,1,0,2.243L15.418,25.356Z" transform="translate(-9.525 -9.006)" fill="#274c77"/>
    <path id="Path_11052" data-name="Path 11052" d="M35.225,31.29l9.841,9.841-3.935,3.935L31.29,35.225" transform="translate(-25.066 -25.066)" fill="#6096ba"/>
    <path id="Path_11053" data-name="Path 11053" d="M17.8,21.736,7.96,11.9,11.9,7.96,21.736,17.8" transform="translate(-7.96 -7.96)" fill="#6096ba"/>
    <rect id="Rectangle_7375" data-name="Rectangle 7375" width="2.226" height="1.113" transform="translate(1.18 5.113) rotate(-45)" fill="#f5dd90"/>
    <rect id="Rectangle_7376" data-name="Rectangle 7376" width="2.226" height="1.113" transform="translate(2.751 5.271) rotate(-45)" fill="#f5dd90"/>
    <rect id="Rectangle_7377" data-name="Rectangle 7377" width="2.226" height="1.113" transform="translate(3.128 6.409) rotate(-45)" fill="#f5dd90"/>
    <rect id="Rectangle_7378" data-name="Rectangle 7378" width="2.226" height="1.113" transform="translate(4.268 7.548) rotate(-45)" fill="#f5dd90"/>
    <rect id="Rectangle_7379" data-name="Rectangle 7379" width="2.226" height="1.113" transform="translate(5.405 8.69) rotate(-45)" fill="#f5dd90"/>
    <rect id="Rectangle_7380" data-name="Rectangle 7380" width="2.226" height="1.113" transform="translate(9.956 13.238) rotate(-45)" fill="#f5dd90"/>
    <rect id="Rectangle_7381" data-name="Rectangle 7381" width="2.226" height="1.113" transform="translate(11.096 14.376) rotate(-45)" fill="#f5dd90"/>
    <rect id="Rectangle_7382" data-name="Rectangle 7382" width="2.226" height="1.113" transform="translate(12.235 15.515) rotate(-45)" fill="#f5dd90"/>
    <rect id="Rectangle_7383" data-name="Rectangle 7383" width="2.226" height="1.113" transform="translate(13.372 15.676) rotate(-45)" fill="#f5dd90"/>
    <rect id="Rectangle_7384" data-name="Rectangle 7384" width="2.226" height="1.113" transform="translate(14.509 17.242) rotate(-45)" fill="#f5dd90"/>
    <path id="Path_11054" data-name="Path 11054" d="M45.44,11.766l3.15,3.15h0l.79-.785a2.228,2.228,0,0,0-3.15-3.15l-.785.79h0Z" transform="translate(-31.34 -9.011)" fill="#f76c5e"/>
    <path id="Path_11055" data-name="Path 11055" d="M17,45.755,13.856,42.61h0L11.49,48.12,17,45.755Z" transform="translate(-9.525 -30.085)" fill="#f76c5e"/>
    <rect id="Rectangle_7385" data-name="Rectangle 7385" width="23.378" height="1.113" transform="translate(2.682 16.53) rotate(-45)" fill="#6096ba"/>
  </g>
</svg>
