<svg id="stc" xmlns="http://www.w3.org/2000/svg" width="67.105" height="19.73" viewBox="0 0 67.105 19.73">
  <path id="Path_625" data-name="Path 625" d="M322.862,226.944V216.522h1.767v.836a2.852,2.852,0,0,1,2.325-1.037c2.036,0,3.5,1.623,3.5,3.948s-1.47,3.977-3.5,3.977a2.853,2.853,0,0,1-2.325-1.057v3.756h-1.767Zm1.768-7.636v1.921a2.186,2.186,0,0,0,2.017,1.345c1.172,0,1.96-.874,1.96-2.315,0-1.422-.788-2.286-1.96-2.286a2.163,2.163,0,0,0-2.017,1.335" transform="translate(-279.339 -212.372)" fill="#02aa7c"/>
  <path id="Path_626" data-name="Path 626" d="M381.415,222.979a2.22,2.22,0,0,1,2.094-2.315l3.007-.384V219.9a.6.6,0,0,0-.653-.692h-3.775v-1.6h3.842c1.527,0,2.363.749,2.363,2.075v5.427h-1.787V224.2a2.894,2.894,0,0,1-2.478,1.143,2.368,2.368,0,0,1-2.613-2.363m3.045.922a2.2,2.2,0,0,0,2.046-1.258V221.7l-2.3.317c-.634.087-.989.423-.989.97,0,.586.451.912,1.239.912" transform="translate(-329.16 -213.469)" fill="#02aa7c"/>
  <path id="Path_627" data-name="Path 627" d="M434.249,226.436h1.287a.816.816,0,0,0,.874-.663l.231-.663-2.728-7.5h1.844l1.7,5.225h.039l1.623-5.225h1.815l-2.987,8.616c-.4,1.182-.941,1.815-2.257,1.815h-1.441v-1.6Z" transform="translate(-373.829 -213.468)" fill="#02aa7c"/>
  <path id="Path_628" data-name="Path 628" d="M37.484,209.578a6.884,6.884,0,0,0,4.861-1.719,4.455,4.455,0,0,0,1.326-3.227,4.179,4.179,0,0,0-1.23-3.007,6.424,6.424,0,0,0-3.381-1.662L36.7,199.5c-.98-.183-1.537-.672-1.537-1.354,0-.893.864-1.508,2.248-1.508a2.917,2.917,0,0,1,2.094.768,2.326,2.326,0,0,1,.586,1.258l3.41-.768a4.21,4.21,0,0,0-1.258-2.555,6.888,6.888,0,0,0-4.87-1.806,6.665,6.665,0,0,0-4.524,1.595,4.487,4.487,0,0,0-1.441,3.323,3.822,3.822,0,0,0,1.1,2.824,6.73,6.73,0,0,0,3.227,1.633l2.334.557c1.172.279,1.691.711,1.691,1.479,0,.951-.864,1.508-2.277,1.508a3.162,3.162,0,0,1-2.363-.893,2.146,2.146,0,0,1-.615-1.412L31,204.919a4.384,4.384,0,0,0,1.326,2.709,7.114,7.114,0,0,0,5.158,1.95m25.955,0a7.292,7.292,0,0,0,5.225-2,6.831,6.831,0,0,0,1.844-3.1l-3.593-1.2a3.413,3.413,0,0,1-.951,1.595,3.493,3.493,0,0,1-2.526.951,3.888,3.888,0,0,1-2.738-1.1,4.456,4.456,0,0,1-1.143-3.17,4.408,4.408,0,0,1,1.143-3.17A3.739,3.739,0,0,1,63.41,197.3a3.26,3.26,0,0,1,2.43.922,3.914,3.914,0,0,1,.922,1.633l3.66-1.23a7,7,0,0,0-1.719-3.045,7.483,7.483,0,0,0-5.379-2.056,7.767,7.767,0,0,0-5.562,2.248,8.405,8.405,0,0,0,.058,11.565,7.853,7.853,0,0,0,5.619,2.238m-12.42,0a5.137,5.137,0,0,0,3.227-.922v-3.323a3.55,3.55,0,0,1-2.065.615,1.724,1.724,0,0,1-2-2.027V189.848H46.119V194h8.117v3.938H46.119v6.983a4.7,4.7,0,0,0,1.2,3.352,5.145,5.145,0,0,0,3.7,1.306" transform="translate(-31 -189.848)" fill="#502c84"/>
</svg>
